<svg width="43" height="43" viewBox="0 0 43 43" fill="none" xmlns="http://www.w3.org/2000/svg">
<circle cx="21.4999" cy="21.5" r="21.5" fill="#D8A65D"/>
<path d="M14.5164 12C14.9025 12.0992 15.1791 12.3549 15.4556 12.6316C16.4052 13.592 17.36 14.5367 18.3095 15.4919C18.9148 16.1026 18.92 16.8281 18.3148 17.4335C18.0539 17.6945 17.7878 17.9555 17.5269 18.2217C16.9008 18.8637 16.7808 19.7354 17.2034 20.5235C18.4348 22.8097 20.1983 24.5686 22.4783 25.8004C23.2609 26.2232 24.1375 26.098 24.7792 25.4716C25.0609 25.2002 25.3323 24.9183 25.6088 24.6417C26.1566 24.1041 26.9079 24.0989 27.4505 24.6417C28.5045 25.6856 29.5532 26.74 30.5967 27.7891C31.1236 28.3163 31.1341 29.0522 30.628 29.5898C30.2367 30.0074 29.8297 30.4145 29.4384 30.8269C28.6819 31.615 27.7375 31.9543 26.6731 31.996C25.5096 32.0378 24.4035 31.7455 23.334 31.3123C21.6174 30.6233 20.0783 29.6316 18.6435 28.4729C16.3634 26.6304 14.3964 24.5008 12.8625 21.9902C12.0747 20.701 11.4381 19.3491 11.1407 17.8563C11.0886 17.5849 11.0468 17.3083 10.9999 17.0369C10.9999 16.7132 10.9999 16.3844 10.9999 16.0608C11.0155 15.9982 11.0312 15.9355 11.0416 15.8729C11.1564 15.0691 11.4277 14.3331 12.0016 13.7433C12.3877 13.3466 12.7947 12.9708 13.1808 12.5794C13.4417 12.3184 13.7182 12.0887 14.0834 12C14.2295 12 14.3704 12 14.5164 12Z" fill="black"/>
</svg>
