<svg width="43" height="43" viewBox="0 0 43 43" fill="none" xmlns="http://www.w3.org/2000/svg">
<circle cx="21.4999" cy="21.5" r="21.5" fill="#D8A65D"/>
<path d="M21.4935 10.25C19.2685 10.25 17.0934 10.9098 15.2434 12.146C13.3933 13.3821 11.9514 15.1391 11.0999 17.1948C10.2484 19.2505 10.0256 21.5125 10.4597 23.6948C10.8938 25.8771 11.9652 27.8816 13.5386 29.455C15.1119 31.0283 17.1165 32.0998 19.2988 32.5338C21.4811 32.9679 23.7431 32.7451 25.7987 31.8936C27.8544 31.0422 29.6114 29.6002 30.8476 27.7502C32.0837 25.9001 32.7435 23.725 32.7435 21.5C32.7437 20.0226 32.4528 18.5596 31.8874 17.1947C31.3221 15.8297 30.4934 14.5895 29.4488 13.5448C28.4041 12.5001 27.1638 11.6714 25.7989 11.1061C24.4339 10.5408 22.9709 10.2499 21.4935 10.25ZM25.0705 27.2965C25.0284 27.4015 24.9643 27.4963 24.8826 27.5745C24.8008 27.6527 24.7033 27.7126 24.5966 27.75C24.4898 27.7875 24.3763 27.8017 24.2636 27.7916C24.1509 27.7816 24.0417 27.7476 23.9432 27.692L20.8892 25.3189L18.9291 27.1273C18.8836 27.1609 18.8304 27.1825 18.7744 27.1901C18.7184 27.1978 18.6613 27.1912 18.6085 27.1711L18.9842 23.809L18.9963 23.8186L19.004 23.7522C19.004 23.7522 24.4996 18.7488 24.7235 18.5356C24.9501 18.323 24.8753 18.2768 24.8753 18.2768C24.8882 18.0175 24.4686 18.2768 24.4686 18.2768L17.187 22.9614L14.1546 21.9286C14.1546 21.9286 13.6889 21.7616 13.645 21.3942C13.5989 21.0297 14.1698 20.8317 14.1698 20.8317L26.2264 16.0421C26.2264 16.0421 27.2175 15.6005 27.2175 16.3317L25.0705 27.2965Z" fill="#0C0C0D"/>
</svg>
