<svg width="43" height="43" viewBox="0 0 43 43" fill="none" xmlns="http://www.w3.org/2000/svg">
<circle cx="21.4999" cy="21.5" r="21.5" fill="#D8A65D"/>
<path d="M32.9999 16.005C32.987 15.5304 32.9486 15.0568 32.8849 14.586C32.799 14.1736 32.6559 13.7741 32.4594 13.398C32.2538 12.99 31.9778 12.6181 31.6429 12.298C31.3049 11.9814 30.9168 11.7178 30.4929 11.517C30.0992 11.3327 29.6815 11.1995 29.2509 11.121C28.7634 11.0511 28.2717 11.0107 27.7789 11H15.2324C14.7362 11.0124 14.2411 11.0491 13.7489 11.11C13.3178 11.1921 12.9001 11.329 12.5069 11.517C12.0803 11.7136 11.6916 11.9776 11.3569 12.298C11.0259 12.6213 10.7504 12.9925 10.5404 13.398C10.3477 13.7746 10.2085 14.1741 10.1264 14.586C10.0534 15.0523 10.0111 15.5226 9.99988 15.994C9.99988 16.203 9.99988 16.5 9.99988 16.588V27.412C9.99988 27.533 9.99988 27.797 9.99988 27.995C10.0128 28.4696 10.0512 28.9432 10.1149 29.414C10.2007 29.8264 10.3438 30.2259 10.5404 30.602C10.7459 31.01 11.022 31.3819 11.3569 31.702C11.6949 32.0186 12.083 32.2822 12.5069 32.483C12.9006 32.6673 13.3183 32.8005 13.7489 32.879C14.2364 32.9489 14.728 32.9893 15.2209 33H27.7674C28.2635 32.9876 28.7587 32.9509 29.2509 32.89C29.682 32.8079 30.0997 32.671 30.4929 32.483C30.9194 32.2864 31.3082 32.0224 31.6429 31.702C31.9738 31.3787 32.2494 31.0075 32.4594 30.602C32.6521 30.2254 32.7913 29.8259 32.8734 29.414C32.9464 28.9477 32.9887 28.4774 32.9999 28.006C32.9999 27.797 32.9999 27.533 32.9999 27.412V16.588C32.9999 16.5 32.9999 16.203 32.9999 16.005ZM21.7644 29.7C20.3833 29.6935 19.0264 29.3529 17.8199 28.71L13.4499 29.81L14.5999 25.718C13.8583 24.5261 13.4614 23.167 13.4499 21.78C13.4545 20.2212 13.9412 18.6986 14.8487 17.4039C15.7562 16.1092 17.044 15.1003 18.5498 14.5043C20.0556 13.9083 21.7122 13.7518 23.3108 14.0546C24.9094 14.3574 26.3785 15.1059 27.5333 16.2059C28.688 17.3058 29.4766 18.708 29.7998 20.2358C30.123 21.7636 29.9664 23.3488 29.3495 24.7916C28.7327 26.2344 27.6833 27.4704 26.3336 28.3438C24.9838 29.2173 23.394 29.6891 21.7644 29.7ZM21.7644 15.257C20.5452 15.2703 19.3514 15.5925 18.3047 16.1906C17.2579 16.7887 16.3956 17.6415 15.8054 18.6621C15.2153 19.6826 14.9184 20.8346 14.945 22.0006C14.9716 23.1666 15.3207 24.305 15.9569 25.3L16.1179 25.553L15.4279 27.962L18.0499 27.28L18.3029 27.423C19.3489 28.0123 20.5389 28.3273 21.7529 28.336C23.5829 28.336 25.3379 27.6406 26.6319 26.4029C27.9259 25.1652 28.6529 23.4864 28.6529 21.736C28.6529 19.9856 27.9259 18.3068 26.6319 17.0691C25.3379 15.8314 23.5829 15.136 21.7529 15.136L21.7644 15.257ZM25.7894 24.629C25.6388 24.8693 25.4371 25.0767 25.1974 25.2378C24.9577 25.3988 24.6853 25.51 24.3979 25.564C23.9684 25.6391 23.5262 25.6127 23.1099 25.487C22.7181 25.3698 22.3341 25.2303 21.9599 25.069C20.5382 24.3866 19.3257 23.3633 18.4409 22.099C17.96 21.5132 17.6683 20.806 17.6014 20.064C17.5945 19.7558 17.6555 19.4496 17.7803 19.1653C17.9051 18.8811 18.091 18.6251 18.3259 18.414C18.3951 18.339 18.4799 18.2787 18.575 18.237C18.6701 18.1953 18.7733 18.1732 18.8779 18.172H19.1999C19.3264 18.172 19.4989 18.172 19.6599 18.513C19.8209 18.854 20.2464 19.877 20.3039 19.976C20.3321 20.0288 20.3469 20.0872 20.3469 20.1465C20.3469 20.2058 20.3321 20.2642 20.3039 20.317C20.253 20.4365 20.1832 20.5478 20.0969 20.647C19.9934 20.768 19.8784 20.911 19.7864 20.999C19.6944 21.087 19.5794 21.197 19.6944 21.395C20.0073 21.9001 20.3946 22.3595 20.8444 22.759C21.3342 23.173 21.8942 23.5041 22.5004 23.738C22.7074 23.837 22.8339 23.826 22.9489 23.738C23.0639 23.65 23.4664 23.166 23.6044 22.968C23.7424 22.77 23.8804 22.803 24.0644 22.869C24.2484 22.935 25.2719 23.408 25.4789 23.507C25.6859 23.606 25.8124 23.65 25.8699 23.738C25.9198 24.0259 25.892 24.3212 25.7894 24.596V24.629Z" fill="#0C0C0D"/>
</svg>
